<svg xmlns="http://www.w3.org/2000/svg" version="1.1" xmlns:xlink="http://www.w3.org/1999/xlink" xmlns:svgjs="http://svgjs.com/svgjs" width="1920" height="1080" preserveAspectRatio="none" viewBox="0 0 1920 1080"><g mask="url(&quot;#SvgjsMask14417&quot;)" fill="none"><rect width="1920" height="1080" x="0" y="0" fill="url(#SvgjsLinearGradient14418)"></rect><rect width="420" height="420" clip-path="url(&quot;#SvgjsClipPath14419&quot;)" x="864.61" y="28.82" fill="url(#SvgjsPattern14420)" transform="rotate(190.45, 1074.61, 238.82)"></rect><rect width="72" height="72" clip-path="url(&quot;#SvgjsClipPath14421&quot;)" x="117.57" y="796.03" fill="url(#SvgjsPattern14422)" transform="rotate(354.15, 153.57, 832.03)"></rect><rect width="432" height="432" clip-path="url(&quot;#SvgjsClipPath14423&quot;)" x="1076.15" y="676.32" fill="url(#SvgjsPattern14424)" transform="rotate(111.67, 1292.15, 892.32)"></rect><rect width="146.52" height="146.52" clip-path="url(&quot;#SvgjsClipPath14425&quot;)" x="1550.49" y="727.19" fill="url(#SvgjsPattern14426)" transform="rotate(173.05, 1623.75, 800.45)"></rect><circle r="90" cx="1717.27" cy="391.7" stroke="rgba(142, 68, 173, 1)" stroke-width="1.11"></circle><rect width="84" height="84" clip-path="url(&quot;#SvgjsClipPath14427&quot;)" x="106.74" y="896.16" fill="url(#SvgjsPattern14428)" transform="rotate(143.99, 148.74, 938.16)"></rect><rect width="317.6" height="317.6" clip-path="url(&quot;#SvgjsClipPath14429&quot;)" x="1176.34" y="195.62" fill="url(#SvgjsPattern14430)" transform="rotate(240.27, 1335.14, 354.42)"></rect><path d="M692.22 850.74 L639.27 1084.22L777.1674203550499 1078.90242035505z" fill="rgba(142, 68, 173, 1)"></path></g><defs><mask id="SvgjsMask14417"><rect width="1920" height="1080" fill="#ffffff"></rect></mask><linearGradient x1="10.94%" y1="-19.44%" x2="89.06%" y2="119.44%" gradientUnits="userSpaceOnUse" id="SvgjsLinearGradient14418"><stop stop-color="#0e2a47" offset="0"></stop><stop stop-color="#00459e" offset="1"></stop></linearGradient><pattern x="0" y="0" width="420" height="6" patternUnits="userSpaceOnUse" id="SvgjsPattern14420"><rect width="420" height="3" x="0" y="0" fill="rgba(142, 68, 173, 1)"></rect><rect width="420" height="3" x="0" y="3" fill="rgba(0, 0, 0, 0)"></rect></pattern><clipPath id="SvgjsClipPath14419"><circle r="105" cx="1074.61" cy="238.82"></circle></clipPath><pattern x="0" y="0" width="6" height="6" patternUnits="userSpaceOnUse" id="SvgjsPattern14422"><path d="M0 6L3 0L6 6" stroke="rgba(142, 68, 173, 1)" fill="none"></path></pattern><clipPath id="SvgjsClipPath14421"><circle r="18" cx="153.57" cy="832.03"></circle></clipPath><pattern x="0" y="0" width="432" height="6" patternUnits="userSpaceOnUse" id="SvgjsPattern14424"><rect width="432" height="3" x="0" y="0" fill="rgba(142, 68, 173, 1)"></rect><rect width="432" height="3" x="0" y="3" fill="rgba(0, 0, 0, 0)"></rect></pattern><clipPath id="SvgjsClipPath14423"><circle r="108" cx="1292.15" cy="892.32"></circle></clipPath><pattern x="0" y="0" width="6.66" height="6.66" patternUnits="userSpaceOnUse" id="SvgjsPattern14426"><path d="M3.33 1L3.33 5.66M1 3.33L5.66 3.33" stroke="rgba(142, 68, 173, 1)" fill="none" stroke-width="1.65"></path></pattern><clipPath id="SvgjsClipPath14425"><circle r="36.63" cx="1623.75" cy="800.45"></circle></clipPath><pattern x="0" y="0" width="6" height="6" patternUnits="userSpaceOnUse" id="SvgjsPattern14428"><path d="M3 1L3 5M1 3L5 3" stroke="rgba(142, 68, 173, 1)" fill="none" stroke-width="1.31"></path></pattern><clipPath id="SvgjsClipPath14427"><circle r="21" cx="148.74" cy="938.16"></circle></clipPath><pattern x="0" y="0" width="7.94" height="7.94" patternUnits="userSpaceOnUse" id="SvgjsPattern14430"><path d="M3.97 1L3.97 6.94M1 3.97L6.94 3.97" stroke="rgba(142, 68, 173, 1)" fill="none" stroke-width="1.43"></path></pattern><clipPath id="SvgjsClipPath14429"><circle r="79.4" cx="1335.14" cy="354.42"></circle></clipPath></defs></svg>